# xmcd
#
# Track frame offsets:
#	150
#	12795
#	26055
#	37837
#	49987
#	61800
#	73572
#	86830
#	100295
#	113855
#
# Disc length: 1681 seconds
#
# Revision: 2
# Processed by: cddbd v1.5.2PL0 Copyright (c) Steve Scherf et al.
# Submitted via: audiograbber 1.83.01
#
DISCID=7d068f0a
DTITLE=Sons Of The Pioneers - Columbia Historic Edition
DYEAR=1988
DGENRE=Western
TTITLE0=Song Of The Bandit
TTITLE1=At The Rainbow's End
TTITLE2=Hold That Critter Down
TTITLE3=When The Golden Train Comes Down
TTITLE4=Cajón Stomp
TTITLE5=You Must Come In At The Door
TTITLE6=The Devil's Great Grandson
TTITLE7=Cowboy Night Herd Song
TTITLE8=Send Him Home To Me
TTITLE9=The Touch Of God's Hand
EXTD=Traditional Western songs
EXTT0=
EXTT1=
EXTT2=
EXTT3=
EXTT4=
EXTT5=
EXTT6=
EXTT7=
EXTT8=
EXTT9=
PLAYORDER=
